<?xml version="1.0" encoding="iso-8859-1"?><!-- Generator: Adobe Illustrator 19.0.0, SVG Export Plug-In . SVG Version: 6.00 Build 0)  -->
<svg style="enable-background:new 0 0 512 512;" id="Capa_1" version="1.1" viewBox="0 0 512 512"
	x="0px" xmlns="http://www.w3.org/2000/svg" y="0px" xml:space="preserve">
<circle style="fill:#DD3E3E;" cx="213.902" cy="81.605" r="18.877" />
	<circle style="fill:#EDB59E;" cx="131.653" cy="72.55" r="39.455" />
	<circle style="fill:#EDB59E;" cx="420.888" cy="162.071" r="39.535" />
	<g>
	<circle style="fill:#501E0F;" cx="362.239" cy="310.921" r="14.74" />
		<path style="fill:#501E0F;" d="M401.724,370.163l27.48-35.076c3.076-3.927,2.387-9.604-1.54-12.68s-9.604-2.387-12.68,1.54
		l-27.48,35.076c-3.076,3.927-2.387,9.604,1.54,12.681C392.98,374.786,398.655,374.082,401.724,370.163z" />
		<path style="fill:#501E0F;" d="M230.726,238.15c2.681,0,5.335-1.188,7.117-3.463l20.603-26.297
		c3.076-3.927,2.387-9.604-1.54-12.681c-3.926-3.076-9.603-2.387-12.68,1.54l-20.603,26.297c-3.076,3.927-2.387,9.604,1.54,12.681
		C226.814,237.522,228.778,238.15,230.726,238.15z" />
		<path style="fill:#501E0F;" d="M247.79,251.518c2.682,0,5.335-1.188,7.117-3.463l20.602-26.297
		c3.076-3.927,2.387-9.604-1.54-12.681c-3.927-3.076-9.604-2.387-12.681,1.54l-20.602,26.297c-3.076,3.927-2.387,9.604,1.54,12.68
		C243.879,250.89,245.841,251.518,247.79,251.518z" />
</g>
	<g>
</g>
	<g>
</g>
	<g>
</g>
	<g>
</g>
	<g>
</g>
	<g>
</g>
	<g>
</g>
	<g>
</g>
	<g>
</g>
	<g>
</g>
	<g>
</g>
	<g>
</g>
	<g>
</g>
	<g>
</g>
	<g>
</g>
	<path style="fill:#DD9E84;" d="M108.497,146.781c-1.086-10.458,6.511-19.815,16.969-20.902l98.697-3.096l24.415-55.346
	c4.244-9.619,15.482-13.977,25.101-9.734c9.619,4.243,13.977,15.482,9.734,25.102l-28.876,65.455
	c-2.758,6.251-8.655,10.546-15.451,11.252l-109.688,4.238C118.977,164.833,109.587,157.27,108.497,146.781z" />
	<path style="fill:#8FBDFD;" d="M198.012,123.602l-72.547,2.275c-10.458,1.087-18.055,10.445-16.969,20.902
	c1.09,10.49,10.479,18.052,20.902,16.969l68.613-2.651V123.602z" />
	<path style="fill:#3A4069;" d="M158.155,478.904c-1.568,0-3.161-0.163-4.756-0.5c-12.343-2.614-20.231-14.739-17.617-27.081
	l21.069-99.488l-28.273-77.088c-4.345-11.846,1.736-24.97,13.581-29.314c11.846-4.344,24.97,1.736,29.314,13.581l30.536,83.257
	c1.479,4.032,1.791,8.399,0.902,12.6l-22.43,105.918C178.206,471.535,168.719,478.904,158.155,478.904z" />
	<path style="fill:#87AFB9;" d="M224.389,90.285c-5.087,0-9.352-3.972-9.649-9.115c-0.308-5.334,3.764-9.909,9.099-10.218
	l78.129-4.527c5.311-0.307,9.909,3.764,10.217,9.099c0.309,5.334-3.764,9.909-9.099,10.217l-78.129,4.527
	C224.766,90.28,224.577,90.285,224.389,90.285z" />
	<path style="fill:#464D7F;" d="M181.81,326.187l-43.631-38.958h43.685v-136.75c0-14.72-11.934-26.654-26.654-26.654h-47.53
	c-14.72,0-26.654,11.934-26.654,26.654v136.75h0.033c0.002,6.278,2.553,12.529,7.605,17.04l44.117,39.391l-60.063,56.468
	c-9.193,8.643-9.638,23.1-0.996,32.292c4.496,4.782,10.565,7.197,16.648,7.197c5.61,0,11.234-2.055,15.643-6.2l78.229-73.546
	c4.667-4.387,7.277-10.533,7.195-16.938C189.355,336.529,186.588,330.452,181.81,326.187z" />
	<path style="fill:#7EADFC;" d="M181.863,287.229H81.027v-136.75c0-14.72,11.932-26.654,26.654-26.654h47.531
	c14.72,0,26.654,11.934,26.654,26.654v136.75H181.863z" />
	<path style="fill:#EDB59E;" d="M0.044,248.864c-0.141-2.066,0.053-4.189,0.627-6.298l19.961-73.393
	c1.674-6.152,6.314-11.057,12.365-13.07l87.98-29.249c9.977-3.317,20.754,2.083,24.071,12.061
	c3.323,9.976-2.083,20.754-12.059,24.071l-78.294,26.029l-17.283,63.544c-2.76,10.146-13.221,16.133-23.366,13.374
	C6.009,263.747,0.582,256.728,0.044,248.864z" />
	<path style="fill:#8FBDFD;" d="M145.048,138.916c-3.317-9.977-14.094-15.377-24.071-12.059L64.07,145.775l12.781,35.875
	l56.136-18.663C142.965,159.669,148.37,148.891,145.048,138.916z" />
	<path style="fill:#23274A;" d="M404.15,478.904H298.138c-6.777,0-13.151-3.219-17.175-8.673c-4.023-5.454-5.217-12.494-3.216-18.969
	l28.861-93.529l2.614-7.864c3.479-11.262,15.337-17.756,26.596-14.279c11.262,3.479,17.571,15.428,14.092,26.69l-22.841,73.938
	h77.082c11.787,0,21.341,9.555,21.341,21.342C425.492,469.35,415.937,478.904,404.15,478.904z" />
	<path style="fill:#283162;" d="M458.189,478.904H352.177c-6.777,0-13.151-3.219-17.175-8.673
	c-4.023-5.454-5.217-12.494-3.216-18.969l26.646-86.737c3.479-11.262,15.432-17.569,26.69-14.092
	c11.262,3.479,17.571,15.428,14.092,26.69l-18.107,59.095h77.082c11.787,0,21.341,9.555,21.341,21.342
	C479.531,469.35,469.977,478.904,458.189,478.904z" />
	<path style="fill:#EDB59E;" d="M507.906,291.198l-42.804-51.65c-6.538-7.887-15.13-13.765-24.851-16.995
	c-8.695-2.89-71.086-23.63-76.74-25.51c-13.219-4.395-27.483-3.639-40.165,2.132l-53.056,24.14l-38.356-0.38
	c-9.867-0.077-17.863,7.787-17.961,17.608c-0.097,9.822,7.786,17.863,17.608,17.961l42.304,0.419c0.059,0,0.118,0,0.176,0
	c2.54,0,5.052-0.544,7.365-1.597l56.65-25.775c3.469-1.578,7.272-2.083,10.981-1.518l-42.451,127.703l89.394,29.716l12.836-38.612
	l90.846-29.371C511.628,315.606,515.924,300.876,507.906,291.198z M422.76,306.955l14.887-44.785
	c0.021,0.026,0.045,0.049,0.067,0.075l26.063,31.451L422.76,306.955z" />
	<path style="fill:#DD3E3E;" d="M422.76,306.955l14.887-44.785c0.021,0.026,0.045,0.049,0.067,0.075l22.724,27.421l31.06-18.266
	l-26.395-31.851c-6.538-7.887-15.13-13.765-24.851-16.995c-2.417-0.803-8.983-2.986-17.323-5.759
	c-2.398,6.675-9.28,11.631-16.417,11.631c-9.705,0-16.892-7.932-17.312-17.312c-0.082-1.832,0.195-3.607,0.746-5.282
	c-13.123-4.362-24.201-8.044-26.433-8.787c-13.219-4.395-27.483-3.639-40.165,2.132l-32.088,14.599l15.749,31.913l31.069-14.137
	c3.469-1.578,7.272-2.083,10.981-1.518l-42.451,127.703l89.394,29.716l12.836-38.612L422.76,306.955z" />
	<path style="fill:#783C28;" d="M369.749,328.107c3.351,0,6.668-1.486,8.895-4.328c3.845-4.908,2.984-12.005-1.925-15.849
	L239.228,200.211c-4.907-3.845-12.004-2.984-15.851,1.925c-3.846,4.908-2.984,12.005,1.925,15.851l137.492,107.717
	C364.86,327.322,367.313,328.107,369.749,328.107z" />
	<path style="fill:#B48255;" d="M350.071,360.771c-0.871-11.432-9.468-20.799-20.79-22.612c-4.85-0.777-9.398-2.663-13.322-5.738
	c-15.314-11.998-15.343-37.534-0.063-57.037c15.279-19.502,40.081-25.587,55.395-13.589c3.925,3.075,6.844,7.039,8.759,11.562
	c4.479,10.578,15.601,16.668,26.931,14.774c12.202-2.039,24.149,0.31,33.491,7.629c20.752,16.258,20.79,50.862,0.086,77.289
	c-20.705,26.428-54.312,34.673-75.064,18.414C356.15,384.145,351.009,373.107,350.071,360.771z" />
	<path style="fill:#EDB59E;" d="M463.778,293.695l-69.344,22.418c-9.345,3.022-14.473,13.048-11.451,22.394
	c2.433,7.528,9.412,12.319,16.919,12.319c1.813,0,3.656-0.28,5.475-0.866l94.307-30.489c5.611-1.814,9.959-6.293,11.606-11.956
	c1.358-4.665,0.732-9.634-1.634-13.779c0,0-0.623-1.173-1.749-2.536c-4.086-4.949-16.407-19.799-16.407-19.799l-31.06,18.266
	L463.778,293.695z" />
</svg>
