<svg height="512" viewBox="0 0 512 512" width="512" xmlns="http://www.w3.org/2000/svg">
    <g id="flat">
        <g fill="#e6e6e6">
            <circle cx="160" cy="384" r="24" />
            <circle cx="352" cy="384" r="24" />
            <circle cx="160" cy="344" r="16" />
            <circle cx="352" cy="344" r="16" />
        </g>
        <path
            d="m80 192v-40a8 8 0 0 0 -8-8h-48a8 8 0 0 0 -8 8v272a8 8 0 0 0 8 8h48a8 8 0 0 0 8-8zm-16-19.314-12.686-12.686h12.686zm-32 182.628 28.687 28.686-28.687 28.686zm0-192 28.687 28.686-28.687 28.686zm3.313 172.686 28.687-28.686v57.372zm-3.313-19.314v-57.372l28.687 28.686zm3.313-76.686 28.687-28.686v57.372zm16 176 12.687-12.686v12.686z"
            fill="#a3a2a2" />
        <path
            d="m496 288v-136a8 8 0 0 0 -8-8h-48a8 8 0 0 0 -8 8v272a8 8 0 0 0 8 8h48a8 8 0 0 0 8-8zm-48 67.319 28.687 28.681-28.687 28.686zm0-192 28.687 28.681-28.687 28.686zm3.313 172.681 28.687-28.686v57.372zm-3.313-19.314v-57.372l28.687 28.686zm3.313-76.686 28.687-28.686v57.372zm28.687-67.314-12.686-12.686h12.686zm-12.686 243.314 12.686-12.686v12.686z"
            fill="#a3a2a2" />
        <path d="m120 312h80v144h-80z" fill="#808080" />
        <path d="m312 312h80v144h-80z" fill="#808080" />
        <path d="m186.2 312a90.111 90.111 0 0 1 -66.2 105.287v38.713h80v-144z" fill="#666" />
        <path d="m378.2 312a90.111 90.111 0 0 1 -66.2 105.287v38.713h80v-144z" fill="#666" />
        <path
            d="m489.621 64.166-232-48a7.974 7.974 0 0 0 -3.242 0l-232 48a8 8 0 0 0 -6.379 7.834v32h480v-32a8 8 0 0 0 -6.379-7.834z"
            fill="#48bdff" />
        <path
            d="m489.621 64.166-205.721-42.566a422.012 422.012 0 0 1 -227.9 66.4q-20.235 0-40-1.87v17.87h480v-32a8 8 0 0 0 -6.379-7.834z"
            fill="#3ba4f2" />
        <path d="m128 152h16v72h-16z" fill="#b3b3b3" />
        <path d="m368 152h16v72h-16z" fill="#b3b3b3" />
        <path d="m248 304h16v152h-16z" fill="#b3b3b3" />
        <path d="m16 424h480v48h-480z" fill="#8726e2" />
        <path
            d="m262.575 281.425a15.9 15.9 0 0 1 1.425 6.575v16a15.979 15.979 0 0 1 -22.575 14.575 15.993 15.993 0 0 0 30.575-6.575v-16a15.99 15.99 0 0 0 -9.425-14.575z"
            fill="#38c1a7" />
        <path d="m152 424h208v64h-208z" fill="#ff2b63" />
        <path
            d="m203.5 468a203.779 203.779 0 0 1 -51.5-6.581v26.581h208v-64h-30.121a202.626 202.626 0 0 1 -126.379 44z"
            fill="#e5235f" />
        <path d="m148.4 355a15.994 15.994 0 0 0 25.657-18.644 67.16 67.16 0 0 1 -25.657 18.644z"
            fill="#d3d3d3" />
        <path
            d="m142.5 395c-1.325 0-2.633-.069-3.926-.19a24 24 0 1 0 41.572-23.846 41.5 41.5 0 0 1 -37.646 24.036z"
            fill="#d3d3d3" />
        <path d="m340.4 355a15.994 15.994 0 0 0 25.657-18.644 67.16 67.16 0 0 1 -25.657 18.644z"
            fill="#d3d3d3" />
        <path
            d="m334.5 395c-1.325 0-2.633-.069-3.926-.19a24 24 0 1 0 41.572-23.846 41.5 41.5 0 0 1 -37.646 24.036z"
            fill="#d3d3d3" />
        <path
            d="m391.03 184a16.975 16.975 0 0 0 -12 4.97l-19.03 19.03-8 8 24 24 8-8 19.029-19.03a16.967 16.967 0 0 0 4.971-12 16.97 16.97 0 0 0 -16.97-16.97z"
            fill="#ff891f" />
        <path d="m384 232-24-24-24 16 32 32z" fill="#ffcd01" />
        <path
            d="m152 208-19.029-19.03a16.975 16.975 0 0 0 -12-4.97 16.97 16.97 0 0 0 -16.971 16.97 16.967 16.967 0 0 0 4.971 12l19.029 19.03 8 8 24-24z"
            fill="#ff891f" />
        <path d="m128 232 24-24 24 16-32 32z" fill="#ffcd01" />
        <path
            d="m496 144v-40a8 8 0 0 0 -8-8h-464a8 8 0 0 0 -8 8v48a8 8 0 0 0 8 8h464a8 8 0 0 0 8-8zm-16-19.309-12.686-12.691h12.686zm-387.314 19.309h-57.372l28.686-28.687zm-9.372-32h57.372l-28.686 28.687zm76.686 3.313 28.686 28.687h-57.372zm19.314-3.313h57.372l-28.686 28.687zm76.686 3.313 28.686 28.687h-57.372zm19.314-3.313h57.372l-28.686 28.687zm76.686 3.313 28.686 28.687h-57.372zm19.314-3.313h57.372l-28.686 28.687zm76.686 3.313 28.686 28.687h-57.372zm-403.314-3.313-12.686 12.686v-12.686z"
            fill="#d3d3d3" />
        <rect fill="#38c1a7" height="48" rx="16" width="32" x="240" y="280" />
    </g>
</svg>