<svg enable-background="new 0 0 512 512" height="512" id="Capa_1" viewBox="0 0 512 512" width="512"
    xmlns="http://www.w3.org/2000/svg">
    <g>
        <path
            d="m237.857 356.662c9.261-9.262 9.261-24.332-.002-33.596l-39.768-39.741c-4.473-4.472-10.432-6.935-16.78-6.935-6.349 0-12.309 2.463-16.783 6.937-9.262 9.262-9.262 24.332 0 33.594l39.739 39.741c4.631 4.631 10.714 6.946 16.797 6.946s12.166-2.315 16.797-6.946zm-62.727-50.346c-1.641-1.641-2.544-3.84-2.544-6.191 0-2.352.903-4.551 2.544-6.192s3.834-2.544 6.177-2.544c2.342 0 4.536.903 6.176 2.544 0 0 .001.001.002.002l39.766 39.739c3.414 3.414 3.413 8.969 0 12.383-3.414 3.414-8.968 3.413-12.382 0z" />
        <path
            d="m186.012 374.91-39.766-39.739c-4.473-4.474-10.433-6.938-16.782-6.938s-12.309 2.464-16.783 6.938c-9.261 9.262-9.261 24.332 0 33.594l39.739 39.741c4.473 4.474 10.439 6.937 16.797 6.937s12.323-2.464 16.797-6.937c9.261-9.262 9.261-24.332-.002-33.596zm-10.604 22.99c-1.64 1.641-3.839 2.544-6.19 2.544-2.352 0-4.55-.903-6.191-2.544l-39.739-39.741c-3.414-3.414-3.413-8.969 0-12.383 1.703-1.703 3.94-2.554 6.176-2.554 2.237 0 4.474.851 6.177 2.554 0 0 .001.001.001.002l39.766 39.739c3.414 3.415 3.413 8.969 0 12.383z" />
        <path
            d="m170.762 438.448c-4.142 0-7.485 3.358-7.485 7.5s3.372 7.5 7.514 7.5 7.5-3.358 7.5-7.5-3.358-7.5-7.5-7.5z" />
        <path
            d="m203.529 426.288c-4.142 0-7.485 3.358-7.485 7.5s3.372 7.5 7.514 7.5 7.5-3.358 7.5-7.5-3.358-7.5-7.5-7.5z" />
        <path
            d="m506.949 8.162c-1.742-2.203-4.292-3.275-7.609-3.23h-23.56c-5.05 0-9.031 1.605-12.561 5.089l-2.108 2.108-9.933-9.933c-2.93-2.929-7.677-2.929-10.607 0-2.929 2.929-2.929 7.677 0 10.606l9.935 9.935-15.723 15.73-9.938-9.938c-2.93-2.929-7.677-2.929-10.607 0-2.929 2.929-2.929 7.677 0 10.606l9.941 9.941-15.714 15.72-9.956-9.938c-2.933-2.927-7.681-2.922-10.607.01-2.926 2.931-2.922 7.68.01 10.606l9.949 9.931-7.121 7.124-117.937 117.942c-5.78-15.316-8.956-38.11 3.78-72.696 2.805-7.638 5.705-15.537.596-20.773-4.994-5.118-12.405-2.599-19.578-.164-40.503 13.8-58.164 29.727-72.22 49.395-2.408 3.37-1.629 8.054 1.741 10.462 3.37 2.407 8.053 1.628 10.462-1.741 12.727-17.808 28.015-31.367 64.848-43.916.25-.085.491-.166.725-.244-.195.554-.411 1.154-.65 1.804-12.698 34.483-13.096 63.035-1.152 89.322l-39.598 39.599c-2.53 2.499-3.929 5.839-3.94 9.405-.011 3.584 1.377 6.951 3.905 9.479l29.028 29.057c2.603 2.603 6.022 3.904 9.44 3.904 3.42 0 6.838-1.301 9.442-3.904l30.391-30.392c3.192 8.202 3.906 18.154 2.251 30.596-1.657 12.523-.867 25.26 15.987 33.585 5.118 2.533 12.042 2.946 19.374 3.383 3.967.237 10.96.654 13.778 1.739-.577 1.608-2.585 5.494-9.564 12.933-11.673 12.461-24.491 16.693-48.805 21.465-28.736 5.635-38.377 23.031-44.513 40.986-3.296 9.63-8.415 23.757-14.092 36.384-11.082 24.757-30.875 41.433-54.303 45.751-3.971.732-7.949 1.094-11.919 1.094-19.353-.001-38.441-8.609-54.765-24.934l-67.744-67.746c-20.779-20.779-29.834-42.706-26.912-65.171 3.681-28.301 25.79-50.442 43.602-60.801 10.452-6.074 21.308-8.253 32.8-10.56 13.96-2.802 28.394-5.7 41.892-15.916 17.453-13.259 28.982-33.701 39.153-51.735.81-1.436 1.609-2.854 2.401-4.249 2.045-3.601.783-8.179-2.819-10.224s-8.18-.783-10.224 2.819c-.799 1.407-1.606 2.838-2.423 4.286-9.457 16.769-20.176 35.776-35.151 47.152-10.751 8.137-22.909 10.578-35.781 13.162-12.184 2.446-24.783 4.976-37.386 12.299-21.754 12.652-46.559 38.167-50.938 71.834-2.443 18.784.983 47.515 31.18 77.711l67.744 67.746c19.217 19.219 41.945 29.343 65.238 29.343 4.907 0 9.841-.45 14.77-1.358 28.355-5.226 52.147-25.044 65.27-54.363 5.908-13.14 11.2-27.736 14.599-37.669 5.71-16.706 12.974-27.154 33.209-31.122 27.042-5.307 42.449-10.541 56.86-25.925 8.5-9.06 16.684-19.595 12.928-29.028-3.772-9.477-15.678-10.187-27.192-10.874-5-.298-11.222-.67-13.621-1.856-7.671-3.79-9.196-7.356-7.764-18.166 2.354-17.693.437-32.108-5.839-43.85l125.152-125.155h28.178.156c4.528 0 12.733-.118 15.518-10.621l8.588-32.371c1.062-4.004-1.322-8.11-5.326-9.172-4.003-1.063-8.11 1.323-9.171 5.325l-8.446 31.833c-.436.006-.907.004-1.314.006h-28.183l-29.804-29.804 33.285-33.299c.053-.05.109-.094.161-.145.052-.052.097-.109.147-.163l25.915-25.926c.09-.082.184-.157.271-.244.088-.088.165-.182.247-.274l7.115-7.118c.568-.561.74-.73 1.989-.73h16.058l-8.708 32.841c-1.062 4.004 1.323 8.109 5.326 9.171 4.005 1.06 8.11-1.323 9.171-5.327l10.52-39.669c.465-1.768 1.439-5.448-1.2-8.785zm-246.759 279.527-26.683-26.71 18.236-18.236 26.696 26.697zm28.855-28.855-26.696-26.697 18.263-18.264 26.696 26.697zm28.869-28.87-26.696-26.697 18.251-18.251 26.706 26.686zm28.868-28.868-26.707-26.687 18.261-18.262 26.696 26.697zm28.856-28.857-26.696-26.697 18.249-18.249 26.696 26.697zm47.104-47.106-18.249 18.25-26.696-26.697 18.249-18.249z" />
        <path
            d="m442.39 73.33c-4.142 0-7.471 3.358-7.471 7.5s3.386 7.5 7.528 7.5 7.5-3.358 7.5-7.5-3.357-7.5-7.5-7.5z" />
        <path
            d="m459.057 51.985h-.057c-4.142 0-7.471 3.358-7.471 7.5s3.386 7.5 7.528 7.5 7.5-3.358 7.5-7.5-3.358-7.5-7.5-7.5z" />
    </g>
</svg>