<svg enable-background="new 0 0 511.364 511.364" height="512" id="Layer_1"
    viewBox="0 0 511.364 511.364" width="512" xmlns="http://www.w3.org/2000/svg">
    <g>
        <ellipse cx="324.35" cy="77.884" fill="#ffb69e" rx="39.928" ry="39.928"
            transform="matrix(.853 -.523 .523 .853 7.109 180.972)" />
        <ellipse cx="153.813" cy="77.884" fill="#80391b" rx="39.928" ry="39.928"
            transform="matrix(.298 -.954 .954 .298 33.574 201.444)" />
        <g id="XMLID_6268_">
            <path
                d="m71.401 137.181 34.925 5.269-3.942-29.337-15.577-17.906 34.175-66.684c4.933-9.626 1.129-21.43-8.498-26.363-9.626-4.935-21.43-1.129-26.363 8.497l-40.218 78.475c-3.65 7.123-2.6 15.75 2.653 21.788z"
                fill="#80391b" />
        </g>
        <g id="XMLID_6269_">
            <path
                d="m329.964 88.805c-6.21-8.855-18.425-10.999-27.281-4.789l-59.42 41.674h-8.408l-7.414 19.586 7.414 19.586h14.592c4.024 0 7.951-1.24 11.246-3.551l64.482-45.225c8.856-6.211 11-18.425 4.789-27.281z"
                fill="#80391b" />
        </g>
        <g id="XMLID_775_">
            <path
                d="m234.855 125.69-58.403.19s-16.868 8.579-16.868 19.396 8.769 19.586 19.586 19.586h55.685z"
                fill="#e64937" />
        </g>
        <g id="XMLID_6314_">
            <path
                d="m231.71 155.965-20.668 12.456-83.474 18.699c-10.556 2.365-17.195 12.839-14.831 23.394 2.042 9.114 10.128 15.308 19.094 15.308 1.417 0 2.858-.155 4.299-.478l86.578-19.394c2.056-.461 4.024-1.25 5.829-2.337l21.601-13.018 1.644-22.406z"
                fill="#ffb69e" />
        </g>
        <g id="XMLID_6277_">
            <path
                d="m169.009 457.859-98.369-50.512c-12.037-6.18-15.801-21.598-8.001-32.629l74.437-105.87c7.092-10.03 20.974-12.411 31.003-5.319 10.03 7.092 12.412 20.973 5.319 31.003l-59.642 84.947 75.574 38.807c10.928 5.611 15.238 19.019 9.626 29.947-5.61 10.927-19.016 15.238-29.947 9.626z"
                fill="#55696e" />
        </g>
        <g id="XMLID_6272_">
            <path
                d="m117.945 492.195-15.073-108.255c-.798-5.733.671-11.551 4.096-16.218l75.051-102.292c7.265-9.9 21.178-12.037 31.078-4.774 9.899 7.264 12.037 21.178 4.773 31.077l-69.712 95.014 13.828 99.315c1.693 12.162-6.793 23.393-18.954 25.087-12.243 1.701-23.405-6.867-25.087-18.954z"
                fill="#748488" />
        </g>
        <g id="XMLID_6327_">
            <path
                d="m267.605 448.233c-5.611-10.928-1.301-24.336 9.626-29.947l75.573-38.807-56.478-83.047 5.319-31.003 39.82 20.962 62.456 88.326c7.814 11.05 4.016 26.459-8.001 32.629l-98.368 50.512c-10.904 5.602-24.323 1.327-29.947-9.625z"
                fill="#414b82" />
        </g>
        <g id="XMLID_6274_">
            <path
                d="m453.018 45.896c-10.463-2.758-21.174 3.488-23.93 13.949l-19.093 72.458-7.005.87-7.501 21.475 11.127 17.547 21.357-2.654c7.942-.987 14.485-6.707 16.524-14.446l22.469-85.271c2.756-10.458-3.489-21.172-13.948-23.928z"
                fill="#ffb69e" />
        </g>
        <g>
            <path
                d="m402.989 133.173-42.734 5.31s-4.712-.879-11.624-2.169c-1.569 8.671-10.034 15.488-18.829 15.488-10.694 0-18.613-8.741-19.076-19.076-.052-1.172.031-2.322.223-3.444-8.124-1.516-14.549-2.715-16.476-3.074-6.734-1.255-13.699.013-19.557 3.565l-43.206 26.192 18.428 34.63 16.125-9.718-21.88 96.113 101.838 16.902 23.093-117.061 37.301-4.635z"
                fill="#64afff" />
        </g>
        <path
            d="m127.545 134.489 33.517-6.236c5.31 10.476-1.158 23.082-12.765 24.878l-.539.083c-9.697 1.501-18.695-5.368-19.803-15.118z"
            fill="#80391b" />
        <path
            d="m310.949 129.282 37.681 7.032.229 1.446c1.875 11.857-8.043 22.249-19.975 20.928l-5.248-.581c-13.902-1.54-20.942-17.534-12.687-28.825z"
            fill="#ffb69e" />
        <path
            d="m359.595 367.721-75.052-102.291-40.102 11.564c-.366 5.08 1.002 10.311 4.251 14.74l69.712 95.014-13.828 99.315c-1.693 12.162 6.793 23.393 18.954 25.087 12.248 1.7 23.405-6.876 25.087-18.954l15.073-108.255c.798-5.735-.671-11.553-4.095-16.22z"
            fill="#5f6e9b" />
        <path
            d="m190.837 139.316c-1.997-8.895-14.385-13.436-14.385-13.436l-15.39 2.373c.224 1.036.373 2.098.421 3.183.415 9.272-8.188 17.168-17.168 17.168-8.549 0-15.114-6.21-16.77-14.115l-5.653 1.052-19.509-22.427-30.983 24.068 23.311 26.798 25.629 129.913 101.371-19.83z"
            fill="#e64937" />
    </g>
</svg>