<svg height="512" id="Icons" viewBox="0 0 74 74" width="512" xmlns="http://www.w3.org/2000/svg">
    <path
        d="m57 72h-40a3 3 0 0 1 -3-3v-64a3 3 0 0 1 3-3h40a3 3 0 0 1 3 3v64a3 3 0 0 1 -3 3zm-40-68a1 1 0 0 0 -1 1v64a1 1 0 0 0 1 1h40a1 1 0 0 0 1-1v-64a1 1 0 0 0 -1-1z" />
    <path
        d="m37 66a16 16 0 1 1 16-16 16.018 16.018 0 0 1 -16 16zm0-30a14 14 0 1 0 14 14 14.016 14.016 0 0 0 -14-14z" />
    <path
        d="m37 58a8 8 0 1 1 8-8 8.009 8.009 0 0 1 -8 8zm0-14a6 6 0 1 0 6 6 6.007 6.007 0 0 0 -6-6z" />
    <path
        d="m37 30a11 11 0 1 1 11-11 11.012 11.012 0 0 1 -11 11zm0-20a9 9 0 1 0 9 9 9.01 9.01 0 0 0 -9-9z" />
    <path d="m37 24a5 5 0 1 1 5-5 5.006 5.006 0 0 1 -5 5zm0-8a3 3 0 1 0 3 3 3 3 0 0 0 -3-3z" />
</svg>