<?xml version="1.0" encoding="iso-8859-1"?><!-- Generator: Adobe Illustrator 16.0.0, SVG Export Plug-In . SVG Version: 6.00 Build 0)  -->
<!DOCTYPE svg PUBLIC "-//W3C//DTD SVG 1.1//EN" "http://www.w3.org/Graphics/SVG/1.1/DTD/svg11.dtd">
<svg style="enable-background:new 0 0 28.377 28.377;" height="28.377px" id="Capa_1" version="1.1"
	viewBox="0 0 28.377 28.377" width="28.377px" x="0px" xmlns="http://www.w3.org/2000/svg" y="0px"
	xml:space="preserve">
<g>
	<g>
		<path d="M0,13.157c0,2.066,1.673,3.741,3.741,3.741h0.34l2.385,6.551h2.993l-2.387-6.551h4.151V9.417H3.741
			C1.672,9.417,0,11.089,0,13.157z" />
		<path d="M20.202,10.914V4.928l-7.482,4.49v7.481l7.482,4.489v-5.984c1.239,0,2.243-1.006,2.243-2.246
			C22.445,11.917,21.441,10.914,20.202,10.914z" />
		<path d="M22.871,7.65c-0.234,0-0.426,0.191-0.426,0.428V9.78c0,0.232,0.189,0.424,0.426,0.424s0.427-0.191,0.427-0.424V8.079
			C23.297,7.841,23.107,7.65,22.871,7.65z" />
		<path d="M22.871,16.11c-0.234,0-0.426,0.19-0.426,0.423v1.704c0,0.234,0.189,0.427,0.426,0.427s0.427-0.191,0.427-0.427v-1.704
			C23.297,16.301,23.107,16.11,22.871,16.11z" />
		<path d="M25.561,15.244c-0.166-0.166-0.436-0.166-0.603,0c-0.165,0.168-0.165,0.438,0,0.604l1.204,1.201
			c0.083,0.084,0.191,0.125,0.301,0.125s0.217-0.041,0.301-0.125c0.168-0.164,0.168-0.433,0-0.601L25.561,15.244z" />
		<path d="M27.952,12.732h-1.703c-0.233,0-0.425,0.189-0.425,0.425c0,0.236,0.189,0.425,0.425,0.425h1.703
			c0.235,0,0.425-0.188,0.425-0.425C28.376,12.921,28.188,12.732,27.952,12.732z" />
		<path d="M25.26,11.195c0.11,0,0.221-0.042,0.303-0.126l1.201-1.204c0.168-0.165,0.168-0.433,0-0.601
			c-0.164-0.165-0.435-0.165-0.602,0l-1.202,1.203c-0.167,0.166-0.167,0.436,0,0.602C25.043,11.153,25.152,11.195,25.26,11.195z" />
	</g>
</g>
	<g>
</g>
	<g>
</g>
	<g>
</g>
	<g>
</g>
	<g>
</g>
	<g>
</g>
	<g>
</g>
	<g>
</g>
	<g>
</g>
	<g>
</g>
	<g>
</g>
	<g>
</g>
	<g>
</g>
	<g>
</g>
	<g>
</g>
</svg>
