<svg enable-background="new 0 0 510.497 510.497" height="512" id="Layer_1"
    viewBox="0 0 510.497 510.497" width="512" xmlns="http://www.w3.org/2000/svg">
    <circle cx="319.897" cy="214.563" fill="#b48255" r="101.507" />
    <circle cx="191.744" cy="66.857" fill="#ffb69e" r="43.004" />
    <circle cx="367.146" cy="171.722" fill="#965028" r="16.599" />
    <path
        d="m98.238 508.687c-12.208-5.03-18.026-19.003-12.997-31.211l41.553-100.857 3.144-75.121c.551-13.191 11.671-23.443 24.885-22.886 13.192.552 23.438 11.693 22.886 24.885l-3.32 79.331c-.117 2.785-.719 5.529-1.782 8.107l-43.158 104.755c-5.006 12.149-18.948 18.049-31.211 12.997z"
        fill="#5f6e9b" />
    <path
        d="m231.805 489.808-15.366-112.873-32.39-88.309c-4.546-12.396 1.817-26.13 14.213-30.677 12.397-4.546 26.13 1.817 30.677 14.212l33.283 90.745c.594 1.619 1.011 3.298 1.243 5.008l15.715 115.444c1.782 13.083-7.381 25.132-20.463 26.913-13.059 1.781-25.129-7.362-26.912-20.463z"
        fill="#414b82" />
    <path
        d="m239.778 302.498h-109.907v-4.645l4.887-19.263-4.887-12.468v-112.673c0-16.044 13.006-29.05 29.05-29.05h51.806c11.978 0 22.263 7.249 26.707 17.6l.186 14.069 2.157 10.13v136.3z"
        fill="#e64937" />
    <path
        d="m129.871 297.854 109.907-126.831v-17.573c0-4.066-.838-7.936-2.347-11.449l-107.56 124.123z"
        fill="#fff" />
    <path
        d="m319.897 119.863c52.218 0 94.7 42.482 94.7 94.7s-42.482 94.7-94.7 94.7-94.7-42.482-94.7-94.7 42.482-94.7 94.7-94.7m0-12.468c-59.188 0-107.169 47.981-107.169 107.169s47.981 107.169 107.169 107.169 107.169-47.981 107.169-107.169-47.981-107.169-107.169-107.169z"
        fill="#c8a06e" />
    <path
        d="m268.079 201.956c-3.569 0-6.788-2.467-7.598-6.096-.938-4.2 1.706-8.366 5.907-9.304l91.153-20.361c4.199-.939 8.366 1.706 9.303 5.906.939 4.2-1.706 8.366-5.906 9.304l-91.153 20.361c-.571.129-1.144.19-1.706.19z"
        fill="#5a2d19" />
    <path
        d="m271.128 193.992 6.071-18.781 6.119-1.664c10.193-2.773 20.703 3.243 23.474 13.436 2.772 10.192-3.243 20.702-13.435 23.474l-6.293 1.711z"
        fill="#ffb69e" />
    <path
        d="m277.2 175.211-46.249 12.578-38.16-46.721c-6.682-8.18-18.731-9.396-26.911-2.714-8.181 6.682-9.396 18.73-2.714 26.911l46.013 56.335c4.806 5.884 12.592 8.326 19.832 6.357l58.055-15.789z"
        fill="#cf3e2d" />
    <path
        d="m214.636.377-77.079 21.686c-5.724 1.61-8.669 7.783-6.162 12.913l14.038 28.718c.896 1.832 2.973 2.763 4.937 2.21l76.193-21.436c1.963-.552 3.251-2.429 3.06-4.46l-2.996-31.825c-.535-5.685-6.267-9.417-11.991-7.806z"
        fill="#e64937" />
</svg>