<svg height="512" viewBox="0 0 512 512" width="512" xmlns="http://www.w3.org/2000/svg">
    <path
        d="m136 88h100.223a151.554 151.554 0 0 0 67.777-16v64a151.554 151.554 0 0 0 -67.777-16h-52.223l-56-24z"
        fill="#ec9e15" />
    <path
        d="m136 88-2.4 2.4 50.4 21.6h52.223a151.554 151.554 0 0 1 67.777 16v-56a151.554 151.554 0 0 1 -67.777 16z"
        fill="#fdb62f" />
    <path
        d="m74.592 158.986.626 1.044a103.881 103.881 0 0 0 10.9 14.964l49.882 57.006 5.01 30.063a64 64 0 0 0 14.965 31.622l44.025 50.315-80 112h72l52.586-105.173a16 16 0 0 0 .255-13.776l-36.841-81.051-23.96-44.553-57.166-87.615a31.544 31.544 0 0 0 -37.66-10.067 31.543 31.543 0 0 0 -14.622 45.221z"
        fill="#fdb62f" />
    <path
        d="m244.584 336.921-.421-1.363-36.163-79.558-23.959-44.553-48.041 20.553 5.01 30.062a64 64 0 0 0 14.965 31.624l44.025 50.314-80 112h72l52.485-104.97a16 16 0 0 0 .099-14.109z"
        fill="#83bd93" />
    <path
        d="m123.454 125.745 28.546 34.255 40-48v-24h32v32l-16 16-36.931 49.241a16 16 0 0 1 -24.114 1.714l-43.211-43.211a13.36 13.36 0 0 1 -1.669-16.857 13.36 13.36 0 0 1 21.379-1.142z"
        fill="#fad7be" />
    <path d="m208 256 41.268 41.268a16 16 0 0 1 4.026 15.86l-7.628 25.738z" fill="#6a9876" />
    <path d="m243.488 353.024-19.488 102.976h-32z" fill="#6a9876" />
    <path d="m208 456 24 24v8h-40l-24-32z" fill="#cdcdcd" />
    <path
        d="m440 56h-24v-8h24a8 8 0 0 0 0-16h-32a8 8 0 0 0 -8 8v32h-8a24 24 0 1 0 24 24v-24h24a8 8 0 0 0 0-16z"
        fill="#83bd93" />
    <path
        d="m464 288h-24v-8h24a8 8 0 0 0 0-16h-32a8 8 0 0 0 -8 8v32h-8a24 24 0 1 0 24 24v-24h24a8 8 0 0 0 0-16z"
        fill="#ff9201" />
    <path d="m368 160h-32a8 8 0 0 0 -8 8v32h-8a24 24 0 1 0 24 24v-48h24a8 8 0 0 0 0-16z"
        fill="#69b9e7" />
    <path d="m136 72h-64v-16a32 32 0 0 1 32-32 32 32 0 0 1 32 32z" fill="#74624f" />
    <path d="m152 80h-96a8 8 0 0 1 0-16h96a8 8 0 0 1 0 16z" fill="#8e7760" />
    <path d="m136 456v16l16 16h40l-24-32z" fill="#d9d9d9" />
    <path d="m137.455 142.545-14-16.8a13.359 13.359 0 1 0 -19.709 18l16.254 16.255z"
        fill="#ec9e15" />
    <path d="m73.131 48a31.727 31.727 0 0 0 -1.131 8v8h64v-8a31.727 31.727 0 0 0 -1.131-8z"
        fill="#e1655e" />
    <path d="m80 84a27.755 27.755 0 0 0 .4 4h55.2a27.755 27.755 0 0 0 .4-4v-4h-56z"
        fill="#e6c5b0" />
    <rect fill="#fad7be" height="72" rx="28" width="56" x="80" y="40" />
</svg>