<svg xmlns:xlink="http://www.w3.org/1999/xlink" enable-background="new 0 0 510 510" height="512"
    id="Capa_1" viewBox="0 0 510 510" width="512" xmlns="http://www.w3.org/2000/svg">
    <g>
        <g>
            <path
                d="m382.312 150.968-32.606-15.931c-3.723-1.818-8.213-.276-10.032 3.446-1.818 3.722-.275 8.213 3.446 10.032l32.606 15.931c1.06.518 2.182.763 3.287.763 2.776 0 5.444-1.547 6.744-4.209 1.82-3.722.277-8.214-3.445-10.032z"
                fill="url(#SVGID_1_)" />
            <path
                d="m347.737 223.861-32.606-15.931c-3.723-1.818-8.213-.276-10.032 3.446-1.818 3.722-.275 8.213 3.446 10.032l32.606 15.931c1.06.518 2.182.763 3.287.763 2.776 0 5.444-1.547 6.745-4.209 1.819-3.723.276-8.214-3.446-10.032z"
                fill="url(#SVGID_2_)" />
            <path
                d="m310.176 300.06-32.606-15.931c-3.723-1.817-8.213-.276-10.032 3.446-1.818 3.722-.275 8.213 3.446 10.032l32.606 15.931c1.06.518 2.182.763 3.287.763 2.776 0 5.444-1.547 6.744-4.209 1.82-3.722.277-8.214-3.445-10.032z"
                fill="url(#SVGID_3_)" />
        </g>
        <g>
            <g>
                <circle cx="61.01" cy="436.595" fill="url(#SVGID_12_)" r="34.446" />
                <path
                    d="m267.463 223.637c-10.871 11.161-27.481 13.361-40.622 6.48l36.722-58.013c1.14.86 2.23 1.8 3.28 2.82 13.621 13.282 13.901 35.093.62 48.713z"
                    fill="url(#SVGID_9_)" />
                <path d="m165.488 262.079c.36-1.8.87-3.57 1.54-5.3-.49 1.77-1.01 3.54-1.54 5.3z"
                    fill="url(#SVGID_10_)" />
                <path
                    d="m223.881 293.091c-10.951 11.251-27.731 13.401-40.912 6.33l36.742-58.053c1.24.9 2.42 1.91 3.55 3.01 13.621 13.281 13.901 35.092.62 48.713z"
                    fill="url(#SVGID_11_)" />
                <path
                    d="m311.046 154.184c-10.801 11.081-27.241 13.331-40.332 6.63l36.692-57.963c1.05.8 2.05 1.68 3.02 2.62 13.62 13.281 13.9 35.082.62 48.713z"
                    fill="url(#SVGID_8_)" />
            </g>
            <path
                d="m463.24 14.093c-.065-.041-.13-.082-.195-.123-10.317-6.488-23.947-3.524-30.916 6.475l-1.223 1.755c-4.909 7.042-13.157 11.229-21.707 10.456-10.137-.917-20.31 4.284-26.301 13.748l-23.277 36.77-21.131-13.377-2.643 4.175 39.71 25.138 23.277-36.77c8.335-13.167 25.765-17.083 38.932-8.749l13.355 8.454 25.138-39.71z"
                fill="url(#SVGID_5_)" />
            <path
                d="m496.138 47.66 9.439 5.975c4.385 2.776 5.738 8.506 3.02 12.799l-7.468 11.797c-4.668 7.375-14.561 9.487-22.095 4.717l-49.665-31.44c-7.534-4.769-9.858-14.614-5.189-21.989l4.775-7.542c8.515-13.452 26.559-17.304 40.302-8.604l2.297 1.454c6.502 4.116 10.872 10.304 12.773 17.107 1.813 6.491 6.062 12.087 11.811 15.726z"
                fill="url(#SVGID_6_)" />
            <path
                d="m387.406 69.872-28.673-18.151c-7.478-4.734-17.377-2.509-22.11 4.969l-199.48 315.118c-3.753 5.928-11.601 7.692-17.529 3.939s-7.692-11.6-3.939-17.529l20.98-33.142c17.907-28.287 30.116-59.799 35.942-92.767l10.724-60.684-166.913 37.508 12.648 56.285c4.874 21.691.932 44.43-10.959 63.215-34.446 54.415-18.259 126.452 36.156 160.898 57.927 36.669 134.835 15.695 166.126-45.305l172.854-353.78c3.587-7.341 1.076-16.204-5.827-20.574z"
                fill="url(#SVGID_7_)" />
            <path
                d="m476.259 22.334-13.018-8.241c-35.284-22.336-81.994-11.839-104.33 23.444l-23.064 36.434 39.71 25.138 23.277-36.77c8.335-13.167 25.765-17.083 38.932-8.749l13.355 8.454z"
                fill="url(#SVGID_4_)" />
            <path
                d="m141.647 180.995-125.236 28.142 1.01 4.49 8.77 39.042 48.077-10.803c27.912-6.272 51.258 21.57 40.234 47.969-4.827 11.56-10.73 23.659-17.868 35.238l-2.971 4.692c-2.041-6.099-5.818-11.739-11.356-16.122-13.021-10.305-31.898-9.697-44.256 1.394-14.989 13.453-15.271 36.526-1.086 50.351 12.296 11.985 31.256 12.917 44.597 2.969 1.885-1.406 4.415-1.364 6.306.033.283.209.575.411.875.605.138.089.269.171.391.244 9.176 5.479 19.734 8.423 30.568 8.423h5.516l.003-.008c-2.283-.213-4.55-1.033-6.542-2.557-5.284-4.042-6.339-11.609-2.781-17.23l20.757-32.789c11.778-18.606 21.073-38.612 27.724-59.506l.039-.061c3.45-10.841 6.19-21.941 8.18-33.202l10.721-60.683z"
                fill="url(#SVGID_13_)" />
            <path
                d="m393.23 90.451-172.849 353.777c-20.801 40.552-61.763 63.413-103.905 63.413-6.66 0-13.341-.57-19.991-1.73 34.692-6.03 66.393-27.611 83.874-61.683l172.849-353.777c3.59-7.35 1.08-16.211-5.82-20.581l-13.641-8.63 2.88-4.55c4.73-7.48 14.631-9.7 22.111-4.97l28.671 18.151c6.901 4.369 9.411 13.229 5.821 20.58z"
                fill="url(#SVGID_14_)" />
        </g>
        <g>
            <g>
                <circle cx="299.715" cy="114.731" fill="url(#SVGID_18_)" r="34.446" />
                <path
                    d="m323.758 90.064c-2.731-2.662-5.793-4.769-9.047-6.343 6.609 12.814 4.669 28.936-5.949 39.829-10.617 10.893-26.684 13.245-39.663 6.967 1.657 3.212 3.842 6.22 6.572 8.882 13.623 13.279 35.432 12.999 48.71-.624 13.28-13.624 13-35.432-.623-48.711z"
                    fill="url(#SVGID_19_)" />
            </g>
            <g>
                <circle cx="256.134" cy="184.188" fill="url(#SVGID_20_)" r="34.446" />
                <path
                    d="m280.177 159.521c-2.731-2.662-5.793-4.769-9.047-6.343 6.609 12.814 4.669 28.936-5.949 39.829-10.617 10.893-26.684 13.245-39.663 6.967 1.657 3.212 3.842 6.22 6.572 8.882 13.623 13.279 35.432 12.999 48.71-.624 13.28-13.624 13-35.433-.623-48.711z"
                    fill="url(#SVGID_21_)" />
            </g>
            <g>
                <circle cx="212.553" cy="253.644" fill="url(#SVGID_22_)" r="34.446" />
                <path
                    d="m236.596 228.977c-2.731-2.662-5.793-4.769-9.047-6.343 6.609 12.814 4.669 28.936-5.949 39.829-10.617 10.893-26.684 13.245-39.663 6.967 1.657 3.212 3.842 6.22 6.572 8.882 13.623 13.279 35.432 12.999 48.71-.624 13.279-13.624 13-35.432-.623-48.711z"
                    fill="url(#SVGID_23_)" />
            </g>
        </g>
        <g>
            <circle cx="74.344" cy="325.314" fill="url(#SVGID_24_)" r="34.446" />
            <path
                d="m98.387 300.647c-2.731-2.662-5.793-4.769-9.047-6.343 6.609 12.814 4.669 28.936-5.949 39.829-10.617 10.893-26.684 13.245-39.663 6.967 1.657 3.212 3.842 6.22 6.572 8.882 13.623 13.279 35.432 12.999 48.71-.624s13-35.432-.623-48.711z"
                fill="url(#SVGID_25_)" />
        </g>
        <g>
            <circle cx="74.344" cy="421.189" fill="url(#SVGID_26_)" r="34.446" />
            <path
                d="m98.387 396.522c-2.731-2.662-5.793-4.769-9.047-6.343 6.609 12.814 4.669 28.936-5.949 39.829-10.617 10.893-26.684 13.245-39.663 6.967 1.657 3.212 3.842 6.22 6.572 8.882 13.623 13.279 35.432 12.999 48.71-.624s13-35.433-.623-48.711z"
                fill="url(#SVGID_27_)" />
        </g>
        <path
            d="m190.077 170.068c-2.423-10.783-13.129-17.56-23.911-15.137l-143.85 32.325c-10.783 2.423-17.56 13.129-15.137 23.911 2.423 10.783 13.129 17.56 23.911 15.137l143.85-32.325c10.783-2.423 17.56-13.128 15.137-23.911z"
            fill="url(#SVGID_15_)" />
        <path
            d="m190.077 170.068c-2.423-10.783-13.129-17.56-23.911-15.137l-10.409 2.339c4.563 2.713 8.053 7.209 9.308 12.798 2.423 10.783-4.354 21.488-15.137 23.911l-133.441 29.987c4.241 2.522 9.408 3.506 14.603 2.339l143.85-32.325c10.783-2.424 17.56-13.129 15.137-23.912z"
            fill="url(#SVGID_16_)" />
        <path
            d="m341.968 61.627 44.429 28.125c5.836 3.694 13.562 1.958 17.256-3.878 3.694-5.836 1.958-13.562-3.878-17.256l-44.429-28.125c-5.836-3.694-13.562-1.958-17.256 3.878-3.694 5.835-1.958 13.561 3.878 17.256z"
            fill="url(#SVGID_17_)" />
        <path
            d="m296.292 339.143c-1.105 0-2.227-.245-3.287-.763-3.722-1.818-5.265-6.31-3.446-10.032l94.231-192.868c1.818-3.722 6.31-5.265 10.032-3.446 3.722 1.818 5.265 6.31 3.446 10.032l-94.232 192.868c-1.3 2.661-3.968 4.209-6.744 4.209z"
            fill="url(#SVGID_28_)" />
    </g>
    <linearGradient id="lg1">
        <stop offset="0" stop-color="#fef056" />
        <stop offset=".5213" stop-color="#fbc56d" />
        <stop offset="1" stop-color="#c86d36" />
    </linearGradient>
    <linearGradient gradientUnits="userSpaceOnUse" id="SVGID_1_" x1="238.512" x2="351.655"
        y1="149.741" y2="149.741" xlink:href="#lg1" />
    <linearGradient gradientUnits="userSpaceOnUse" id="SVGID_2_" x1="238.512" x2="351.655"
        y1="222.634" y2="222.634" xlink:href="#lg1" />
    <linearGradient gradientUnits="userSpaceOnUse" id="SVGID_3_" x1="238.512" x2="351.655"
        y1="298.833" y2="298.833" xlink:href="#lg1" />
    <linearGradient gradientTransform="matrix(.976 -.219 .219 .976 -88.536 -287.808)"
        gradientUnits="userSpaceOnUse" id="SVGID_4_" x1="313.711" x2="488.987" y1="436.321"
        y2="436.321" xlink:href="#lg1" />
    <linearGradient gradientUnits="userSpaceOnUse" id="SVGID_5_" x1="315.349" x2="441.284"
        y1="54.817" y2="54.817" xlink:href="#lg1" />
    <linearGradient gradientUnits="userSpaceOnUse" id="SVGID_6_" x1="403.354" x2="534.551"
        y1="47.11" y2="47.11">
        <stop offset="0" stop-color="#537983" />
        <stop offset=".593" stop-color="#554e56" />
        <stop offset="1" stop-color="#433f43" />
    </linearGradient>
    <linearGradient gradientTransform="matrix(.976 -.219 .219 .976 -88.536 -287.808)"
        gradientUnits="userSpaceOnUse" id="SVGID_7_" x1="-80.825" x2="445.72" y1="624.263"
        y2="624.263" xlink:href="#lg1" />
    <linearGradient gradientUnits="userSpaceOnUse" id="SVGID_8_" x1="188.009" x2="321.257"
        y1="133.717" y2="133.717" xlink:href="#lg1" />
    <linearGradient gradientUnits="userSpaceOnUse" id="SVGID_9_" x1="181.509" x2="293.23"
        y1="203.069" y2="203.069" xlink:href="#lg1" />
    <linearGradient id="lg2">
        <stop offset="0" stop-color="#fbc56d" />
        <stop offset=".593" stop-color="#dc8758" />
        <stop offset="1" stop-color="#9e5528" />
    </linearGradient>
    <linearGradient gradientUnits="userSpaceOnUse" id="SVGID_10_" x1="165.488" x2="167.028"
        y1="259.429" y2="259.429" xlink:href="#lg2" />
    <linearGradient gradientUnits="userSpaceOnUse" id="SVGID_11_" x1="143.007" x2="242.885"
        y1="272.431" y2="272.431" xlink:href="#lg1" />
    <linearGradient gradientUnits="userSpaceOnUse" id="SVGID_12_" x1="-28.501" x2="135.295"
        y1="436.595" y2="436.595" xlink:href="#lg1" />
    <linearGradient gradientUnits="userSpaceOnUse" id="SVGID_13_" x1="-70.67" x2="256.25"
        y1="274.642" y2="274.642" xlink:href="#lg1" />
    <linearGradient gradientUnits="userSpaceOnUse" id="SVGID_14_" x1="-97.87" x2="407.755"
        y1="278.437" y2="278.437" xlink:href="#lg1" />
    <linearGradient gradientUnits="userSpaceOnUse" id="SVGID_15_" x1="-9.501" x2="276.357"
        y1="190.618" y2="190.618" xlink:href="#lg1" />
    <linearGradient gradientUnits="userSpaceOnUse" id="SVGID_16_" x1="-80.503" x2="239.001"
        y1="190.616" y2="190.616" xlink:href="#lg1" />
    <linearGradient gradientTransform="matrix(1.064 -.163 .308 1.032 13.169 -223.426)"
        gradientUnits="userSpaceOnUse" id="SVGID_17_" x1="181.283" x2="282.36" y1="318.201"
        y2="318.201" xlink:href="#lg1" />
    <linearGradient gradientTransform="matrix(.716 .698 -.698 .716 -1486.913 934.694)"
        gradientUnits="userSpaceOnUse" id="SVGID_18_" x1="672.636" x2="741.528" y1="-1834.233"
        y2="-1834.233" xlink:href="#lg2" />
    <linearGradient gradientTransform="matrix(.716 .698 -.698 .716 -1487.317 933.753)"
        gradientUnits="userSpaceOnUse" id="SVGID_19_" x1="618.249" x2="728.136" y1="-1833.841"
        y2="-1833.841" xlink:href="#lg2" />
    <linearGradient gradientTransform="matrix(.716 .698 -.698 .716 -1486.913 934.694)"
        gradientUnits="userSpaceOnUse" id="SVGID_20_" x1="689.907" x2="758.8" y1="-1754.076"
        y2="-1754.076" xlink:href="#lg2" />
    <linearGradient gradientTransform="matrix(.716 .698 -.698 .716 -1487.317 933.753)"
        gradientUnits="userSpaceOnUse" id="SVGID_21_" x1="635.521" x2="745.408" y1="-1753.684"
        y2="-1753.684" xlink:href="#lg2" />
    <linearGradient gradientTransform="matrix(.716 .698 -.698 .716 -1486.913 934.694)"
        gradientUnits="userSpaceOnUse" id="SVGID_22_" x1="707.179" x2="776.071" y1="-1673.919"
        y2="-1673.919" xlink:href="#lg2" />
    <linearGradient gradientTransform="matrix(.716 .698 -.698 .716 -1487.317 933.753)"
        gradientUnits="userSpaceOnUse" id="SVGID_23_" x1="652.792" x2="762.679" y1="-1673.527"
        y2="-1673.527" xlink:href="#lg2" />
    <linearGradient gradientTransform="matrix(.716 .698 -.698 .716 -1486.913 934.694)"
        gradientUnits="userSpaceOnUse" id="SVGID_24_" x1="658.232" x2="727.125" y1="-1526.126"
        y2="-1526.126" xlink:href="#lg2" />
    <linearGradient gradientTransform="matrix(.716 .698 -.698 .716 -1487.317 933.753)"
        gradientUnits="userSpaceOnUse" id="SVGID_25_" x1="603.846" x2="713.733" y1="-1525.734"
        y2="-1525.734" xlink:href="#lg2" />
    <linearGradient gradientTransform="matrix(.716 .698 -.698 .716 -1486.913 934.694)"
        gradientUnits="userSpaceOnUse" id="SVGID_26_" x1="725.152" x2="794.045" y1="-1457.47"
        y2="-1457.47" xlink:href="#lg2" />
    <linearGradient gradientTransform="matrix(.716 .698 -.698 .716 -1487.317 933.753)"
        gradientUnits="userSpaceOnUse" id="SVGID_27_" x1="670.766" x2="780.652" y1="-1457.078"
        y2="-1457.078" xlink:href="#lg2" />
    <linearGradient gradientUnits="userSpaceOnUse" id="SVGID_28_" x1="270.014" x2="406.087"
        y1="235.207" y2="235.207" xlink:href="#lg1" />
</svg>