<svg height="512" viewBox="0 0 59 59" width="512" xmlns="http://www.w3.org/2000/svg">
    <g fill="none" id="089---Writing-Music" transform="translate(-1)">
        <circle cx="25.099" cy="34.901" fill="#2c2f38" id="Oval" r="4.695" />
        <g fill="#95a5a5">
            <path
                d="m52.987 15.98c-.2650514.0002087-.5193437-.1048173-.707-.292l-1.162-1.162c-.3789722-.3923789-.3735524-1.0160848.0121814-1.4018186s1.0094397-.3911536 1.4018186-.0121814l1.162 1.161c.2859079.2859943.3714219.7160366.216678 1.0896546-.1547439.3736179-.5192821.6172591-.923678.6173454z"
                id="Shape" />
            <path
                d="m46.181 9.175c-.2651948-.00005664-.5195073-.10545063-.707-.293l-1.162-1.162c-.2525868-.2527654-.3511379-.62108371-.25853-.96621298s.3623054-.61463615.7075-.70700001c.3451947-.09236386.7134432.00644758.96603.25921299l1.161 1.162c.2859079.28599425.3714219.71603662.216678 1.08965456s-.5192821.61725909-.923678.61734544z"
                id="Shape" />
            <path
                d="m56.307 13.989c-.2647717.0017781-.5192885-.1022606-.707-.289l-1.6-1.6c-.2599566-.2510745-.3642126-.6228779-.2726972-.9725073.0915155-.3496295.3645604-.6226744.7141899-.7141899.3496294-.0915154.7214328.0127406.9725073.2726972l1.6 1.6c.2859079.2859943.3714219.7160366.216678 1.0896546-.1547439.3736179-.5192821.6172591-.923678.6173454z"
                id="Shape" />
            <path
                d="m48.611 6.293c-.2665803.0010075-.5225283-.10446755-.711-.293l-1.6-1.6c-.3789722-.39237889-.3735524-1.01608478.0121814-1.40181858.3857338-.38573379 1.0094397-.39115363 1.4018186-.01218142l1.6 1.6c.2859079.28599425.3714219.71603662.216678 1.08965456s-.5192821.61725909-.923678.61734544z"
                id="Shape" />
            <path
                d="m58.963 11.333c-.2651948-.0000566-.5195073-.1054506-.707-.293l-1.381-1.381c-.3789722-.39237889-.3735524-1.01608478.0121814-1.40181858.3857338-.38573379 1.0094397-.39115363 1.4018186-.01218142l1.381 1.381c.2859079.28599425.3714219.7160366.216678 1.0896546-.1547439.3736179-.5192821.6172591-.923678.6173454z"
                id="Shape" />
            <path
                d="m51.048 3.418c-.2651948-.00005664-.5195073-.10545063-.707-.293l-1.381-1.381c-.2599566-.25107447-.3642126-.62287789-.2726972-.97250732.0915155-.34962944.3645604-.6226744.7141899-.71418984.3496294-.09151544.7214328.01274058.9725073.27269716l1.381 1.381c.2859079.28599425.3714219.71603662.216678 1.08965456s-.5192821.61725909-.923678.61734544z"
                id="Shape" />
        </g>
        <path
            d="m42.3 40.014c-.4043959-.0000863-.7689341-.2437275-.923678-.6173454-.1547439-.373618-.0692299-.8036603.216678-1.0896546l5.451-5.452c1.0735804-1.0251473 2.7634196-1.0251473 3.837 0l1.211 1.211c.3789722.3923789.3735524 1.0160848-.0121814 1.4018186s-1.0094397.3911536-1.4018186.0121814l-1.211-1.21c-.2822086-.2698439-.7267914-.2698439-1.009 0l-5.458 5.451c-.1857742.185844-.4372331.2910976-.7.293z"
            fill="#f3d55b" id="Shape" />
        <path
            d="m36.5 28.32c1.9160719 2.8281484 2.3184162 6.4178377 1.076 9.6-.6905565 1.6038279-1.8383434 2.9686509-3.3 3.924-1.3.823-2.862 1-4.1 1.952-2.583 1.959-3 5.166-3.672 8.107-.7939062 3.1847863-3.2299614 5.7020815-6.387 6.6-4.973 1.547-10.677-.876-14.269-4.349-3.473-3.592-5.9-9.3-4.349-14.269.89870933-3.1565251 3.41633227-5.5917656 6.601-6.385 2.941-.671 6.148-1.089 8.107-3.672.949-1.242 1.129-2.8 1.952-4.1.9553491-1.4616566 2.3201721-2.6094435 3.924-3.3 3.1821623-1.2424162 6.7718516-.8400719 9.6 1.076z"
            fill="#a56a43" id="Shape" />
        <path
            d="m29.761 35.472 6.739-7.152 12.543-13.299-1.344-2.845-2.72-1.219-13.299 12.543-7.152 6.739z"
            fill="#603e26" id="Shape" />
        <path
            d="m15.14 52.5c-.2651948-.0000566-.5195073-.1054506-.707-.293l-6.64-6.64c-.25995658-.2510745-.3642126-.6228779-.27269716-.9725073.09151544-.3496295.3645604-.6226744.71418984-.7141899.34962943-.0915154.72143285.0127406.97250732.2726972l6.64 6.64c.2859079.2859943.3714219.7160366.216678 1.0896546-.1547439.3736179-.5192821.6172591-.923678.6173454z"
            fill="#603e26" id="Shape" />
        <path
            d="m10.49 47.85c-.4043959-.0000863-.76893405-.2437275-.92367798-.6173454-.15474393-.373618-.06922994-.8036603.21667798-1.0896546l10.24-10.243c.3904653-.3907414 1.0237585-.3909653 1.4145-.0005.3907414.3904653.3909653 1.0237585.0005 1.4145l-10.238 10.243c-.1882272.1882861-.4437659.2937408-.71.293z"
            fill="#95a5a5" id="Shape" />
        <path
            d="m13.15 50.51c-.4043959-.0000863-.7689341-.2437275-.923678-.6173454-.1547439-.373618-.0692299-.8036603.216678-1.0896546l10.24-10.241c.2527654-.2531227.6213696-.3521689.966963-.259829.3455933.0923399.615672.3620374.7085.7075.0928279.3454626-.0056976.7142063-.258463.967329l-10.24 10.24c-.1882272.1882861-.4437659.2937408-.71.293z"
            fill="#95a5a5" id="Shape" />
        <path
            d="m4.791 44.708c-.53964998.0002939-.98219163-.4276439-1-.967-.189-5.6 3.6-7.15 3.759-7.214.51334867-.2040692 1.09493074.0466514 1.29899995.56.2040692.5133487-.04665131 1.0949308-.55999995 1.299-.129.053-2.639 1.172-2.5 5.289.01797097.5516368-.41437982 1.013527-.966 1.032z"
            fill="#fac176" id="Shape" />
        <path d="m41.595 36.128h6.852v19.7h-6.852z" fill="#2980ba" id="Rectangle-path"
            transform="matrix(-.707 -.707 .707 -.707 44.344 110.324)" />
        <path d="m35.634 50.521 4.845 4.845-8.479 3.634z" fill="#9fc9d3" id="Shape" />
        <path
            d="m51.5869902 31.7045507h6.852v5.139c0 1.8921275-1.5338725 3.426-3.426 3.426-1.8921276 0-3.426-1.5338725-3.426-3.426z"
            fill="#f0c419" id="Shape" transform="matrix(-.707 -.707 .707 -.707 68.466 100.334)" />
        <path
            d="m21.279 9.465-.641-.642c-.397476-.39698001-.943582-.60849386-1.5047601-.58281283-.561178.02568103-1.085683.28618894-1.4452399.71781283l-5.3 6.365c-1.268-1.831-3.24-2.123-4.045-1.323-.781.781-.464 2.364.707 3.536s3.107 1.675 3.783.363c.1-.06.526-.622 6.391-7.661l.639.641c.2525868.252944.6209306.3519205.96628.259646.3453493-.0922745.6152374-.3617814.708-.707s-.0056932-.71370196-.25828-.966646z"
            fill="#3d324c" id="Shape" />
        <path
            d="m49.056 15.034-4.09-4.09c-.3451962-.3455537-.368229-.8979069-.053-1.271l6.3-7.442c.2667084-.3149307.7077792-.41880755 1.087-.256l1.938.83c1.3300832.57007231 2.3899277 1.62991676 2.96 2.96l.83 1.938c.1628076.37922078.0589307.82029163-.256 1.087l-7.442 6.3c-.3743375.3162854-.928858.2919109-1.274-.056z"
            fill="#cf976a" id="Shape" />
        <rect fill="#d75e72" height="22" id="Rectangle-path" rx="1"
            transform="matrix(.707 .707 -.707 .707 13.657 -5.657)" width="14.971" x="6.172"
            y="2.657" />
    </g>
</svg>