<svg height="512" id="Flat" viewBox="0 0 512 512" width="512" xmlns="http://www.w3.org/2000/svg">
    <circle cx="432" cy="160" fill="#7e8589" r="24" />
    <circle cx="432" cy="80" fill="#7e8589" r="24" />
    <circle cx="80" cy="160" fill="#7e8589" r="24" />
    <circle cx="80" cy="80" fill="#7e8589" r="24" />
    <g fill="#4f5659">
        <circle cx="328" cy="280" r="8" />
        <circle cx="328" cy="312" r="8" />
        <circle cx="360" cy="280" r="8" />
        <circle cx="360" cy="312" r="8" />
        <circle cx="392" cy="280" r="8" />
        <circle cx="392" cy="312" r="8" />
        <circle cx="424" cy="280" r="8" />
        <circle cx="424" cy="312" r="8" />
        <path d="m96 288h-16a8 8 0 0 1 0-16h16a8 8 0 0 1 0 16z" />
        <path d="m144 304h-16a8 8 0 0 1 0-16h16a8 8 0 0 1 0 16z" />
        <path d="m192 288h-16a8 8 0 0 1 0-16h16a8 8 0 0 1 0 16z" />
    </g>
    <path d="m24 184h464v208h-464z" fill="#dadcde" />
    <path d="m40 392h32v96h-32z" fill="#c3c6c7" />
    <path d="m432 392h32v96h-32z" fill="#c3c6c7" />
    <path d="m344 120v16a16 16 0 0 1 -16 16h-144a16 16 0 0 1 -16-16v-16z" fill="#e9eef2" />
    <path
        d="m224 184h64a16 16 0 0 1 16 16v16a0 0 0 0 1 0 0h-96a0 0 0 0 1 0 0v-16a16 16 0 0 1 16-16z"
        fill="#c3c6c7" />
    <path d="m240 152h32v32h-32z" fill="#dadcde" />
    <path d="m312 64h-48a8 8 0 0 1 0-16h48a8 8 0 0 1 0 16z" fill="#88c791" />
    <path d="m312 96h-48a8 8 0 0 1 0-16h48a8 8 0 0 1 0 16z" fill="#88c791" />
    <path d="m200 56h32v32h-32z" fill="#2978b8" />
    <path d="m24 360h464v32h-464z" fill="#e9eef2" />
    <path d="m56 248h160v80h-160z" fill="#7e8589" />
    <path d="m56 328h160v32h-160z" fill="#6a7073" />
    <path d="m296 248h160v80h-160z" fill="#7e8589" />
    <path d="m296 328h160v32h-160z" fill="#6a7073" />
    <path d="m80 248h16v80h-16z" fill="#6a7073" />
    <path d="m128 248h16v80h-16z" fill="#6a7073" />
    <path d="m176 248h16v80h-16z" fill="#6a7073" />
    <rect fill="#3397e8" height="128" rx="16" width="176" x="168" y="24" />
    <rect fill="#6a7073" height="192" rx="16" width="112" x="376" y="24" />
    <rect fill="#6a7073" height="192" rx="16" width="112" x="24" y="24" />
</svg>